<svg id="Layer_1" data-name="Layer 1" xmlns="http://www.w3.org/2000/svg" viewBox="0 0 1468.59 424.53"><defs><style>.cls-1{fill:#e9ecef;}.cls-2{fill:#8338ec;}</style></defs><path class="cls-1" d="M670.07,922.26l26.49-80.82A22.65,22.65,0,0,0,675,811.73H340a22.66,22.66,0,0,0-20.72,13.5l-27.15,61.45a22.63,22.63,0,0,0,4.6,25.07L610.6,1229.53a22.68,22.68,0,0,0,16.12,6.74h56.93a22.67,22.67,0,0,0,22.66-22.66v-63.09a22.66,22.66,0,0,0-6.8-16.18l-162-158.83c-14.59-14.3-4.29-39.08,16.14-38.83l94.65,1.17A22.66,22.66,0,0,0,670.07,922.26Z" transform="translate(-289.7 -811.73)"/><path class="cls-2" d="M455.77,1236.27H311.51a21.82,21.82,0,0,1-21.81-21.81v-143a21.79,21.79,0,0,1,26.22-21.36c46.28,9.66,139.65,43.5,161.32,160.44A21.84,21.84,0,0,1,455.77,1236.27Z" transform="translate(-289.7 -811.73)"/><path class="cls-1" d="M872.33,1133a95.44,95.44,0,0,1-23.8-3,110.89,110.89,0,0,1-20.93-7.45,59.49,59.49,0,0,1-11.45-7,3.71,3.71,0,0,1-.85-4.69L827,1090a3.76,3.76,0,0,1,5.44-1.23c1.79,1.24,4,2.65,6.53,4.24a81.62,81.62,0,0,0,15.63,7.31,52.89,52.89,0,0,0,17.78,3.15q14.63,0,24.51-6.88t9.89-20.07q0-10.89-5.73-18.06a53.71,53.71,0,0,0-15-12.62q-9.33-5.44-20.07-10.47a167.86,167.86,0,0,1-20.5-11.32,71.11,71.11,0,0,1-19.5-19.78q-8.32-12.33-8.32-31.83,0-19.2,8.75-31.54a53.54,53.54,0,0,1,23.22-18.49,80.07,80.07,0,0,1,31.69-6.17q13.75,0,23.51,2.87A69.28,69.28,0,0,1,921.07,926q4.5,2.75,7.66,5.08a3.73,3.73,0,0,1,1,4.9L918.51,955.3a3.72,3.72,0,0,1-5.51,1.08,55.35,55.35,0,0,0-11.43-6.71,51.82,51.82,0,0,0-21.79-4.45q-14.06,0-22.36,6.45t-8.32,19.07a26.77,26.77,0,0,0,7.46,19.07,78.06,78.06,0,0,0,19.07,14.33q11.61,6.45,23.94,13.05a102.2,102.2,0,0,1,21.79,15.48,60.67,60.67,0,0,1,13.19,17.2A49.17,49.17,0,0,1,940,1073.1q0,19.5-9,33a55.67,55.67,0,0,1-24.23,20.22Q891.54,1133,872.33,1133Z" transform="translate(-289.7 -811.73)"/><path class="cls-1" d="M967.52,1126.41v-98.88a3.75,3.75,0,0,0-3.75-3.75H948a3.74,3.74,0,0,1-3.75-3.74V1002.3a3.75,3.75,0,0,1,3.75-3.75h15.73a3.74,3.74,0,0,0,3.75-3.74V947.94a3.74,3.74,0,0,1,2.94-3.65l23.76-5.23a3.74,3.74,0,0,1,4.55,3.65v52.1a3.74,3.74,0,0,0,3.74,3.74h22.91a3.74,3.74,0,0,1,3.74,3.75V1020a3.73,3.73,0,0,1-3.74,3.74h-22.91a3.75,3.75,0,0,0-3.74,3.75v98.88a3.75,3.75,0,0,1-3.74,3.75H971.26A3.74,3.74,0,0,1,967.52,1126.41Z" transform="translate(-289.7 -811.73)"/><path class="cls-1" d="M1061.85,973.89a19.76,19.76,0,0,1-14.77-6A20.49,20.49,0,0,1,1041.2,953a18.55,18.55,0,0,1,5.88-13.76,21.89,21.89,0,0,1,29.53,0,18.55,18.55,0,0,1,5.88,13.76,20.49,20.49,0,0,1-5.88,14.91A19.75,19.75,0,0,1,1061.85,973.89Zm-16.06,152.52V1002.3a3.74,3.74,0,0,1,3.74-3.75h24.63a3.74,3.74,0,0,1,3.74,3.75v124.11a3.74,3.74,0,0,1-3.74,3.75h-24.63A3.74,3.74,0,0,1,1045.79,1126.41Z" transform="translate(-289.7 -811.73)"/><path class="cls-1" d="M1107.44,1126.41V923.16a3.73,3.73,0,0,1,3.74-3.74h23.19a3.74,3.74,0,0,1,3.75,3.74v203.25a3.75,3.75,0,0,1-3.75,3.75h-23.19A3.74,3.74,0,0,1,1107.44,1126.41Z" transform="translate(-289.7 -811.73)"/><path class="cls-1" d="M1166.5,1126.41V923.16a3.74,3.74,0,0,1,3.75-3.74h23.19a3.74,3.74,0,0,1,3.74,3.74v203.25a3.75,3.75,0,0,1-3.74,3.75h-23.19A3.75,3.75,0,0,1,1166.5,1126.41Z" transform="translate(-289.7 -811.73)"/><path class="cls-1" d="M1226.14,1126.41V923.16a3.74,3.74,0,0,1,3.74-3.74h24.92a3.74,3.74,0,0,1,3.74,3.74v174.58a3.74,3.74,0,0,0,3.74,3.74h53a3.75,3.75,0,0,1,3.75,3.75v21.18a3.75,3.75,0,0,1-3.75,3.75h-85.41A3.75,3.75,0,0,1,1226.14,1126.41Z" transform="translate(-289.7 -811.73)"/><path class="cls-1" d="M1387.28,1133q-20.64,0-36.27-9.17a64,64,0,0,1-24.23-24.95,75.11,75.11,0,0,1-.14-69.53,64.49,64.49,0,0,1,23.94-24.94q15.48-9.31,36.7-9.32t36.7,9.32a63.57,63.57,0,0,1,23.8,24.94,76.26,76.26,0,0,1-.15,69.53,63.25,63.25,0,0,1-23.94,24.95Q1408.21,1133,1387.28,1133Zm.86-25.23q17.2,0,26.52-12.61t9.32-30.68a52.16,52.16,0,0,0-4.59-22.22,39.58,39.58,0,0,0-13.05-15.92,33.48,33.48,0,0,0-19.92-6,31.12,31.12,0,0,0-19.21,6,39.89,39.89,0,0,0-12.47,15.92,53.51,53.51,0,0,0-4.45,22.22,48.93,48.93,0,0,0,4.87,21.93,39.52,39.52,0,0,0,13.34,15.63A34.14,34.14,0,0,0,1388.14,1107.79Z" transform="translate(-289.7 -811.73)"/><path class="cls-1" d="M1522.32,1133q-19.78,0-30.1-8.31a40.61,40.61,0,0,1-13.91-22.08,120.43,120.43,0,0,1-3.58-30.39V1002.3a3.74,3.74,0,0,1,3.74-3.75H1502a3.75,3.75,0,0,1,3.74,3.75v62.2q0,15.2,1.87,24.65t7.45,13.91q5.6,4.45,16.77,4.44a29,29,0,0,0,15.34-4.44,36.6,36.6,0,0,0,12.19-12.33,32.82,32.82,0,0,0,4.87-17.63v-70.8a3.75,3.75,0,0,1,3.75-3.75h23.19a3.74,3.74,0,0,1,3.74,3.75v124.11a3.74,3.74,0,0,1-3.74,3.75h-18.36a3.74,3.74,0,0,1-3.68-3.09l-1.4-7.81a3.75,3.75,0,0,0-6.52-1.78,46.13,46.13,0,0,1-12.74,10Q1537.8,1133,1522.32,1133Z" transform="translate(-289.7 -811.73)"/><path class="cls-1" d="M1681.46,1133a66.27,66.27,0,0,1-32.55-8.31,63.67,63.67,0,0,1-24.23-23.8q-9.18-15.48-9.17-37,0-20.93,7.88-36.27a58.21,58.21,0,0,1,22.37-23.94q14.48-8.6,34.55-8.6a59.25,59.25,0,0,1,21.5,3.87,56.7,56.7,0,0,1,17.21,10.18c1.08,1,2.09,1.93,3,2.92a3.73,3.73,0,0,0,6.4-2.86l-.55-8.54c0-.08,0-.16,0-.24V923.16a3.74,3.74,0,0,1,3.75-3.74h22.9a3.74,3.74,0,0,1,3.75,3.74v203.25a3.75,3.75,0,0,1-3.75,3.75h-22.13a3.74,3.74,0,0,1-3.75-3.65l-.2-8.12a3.73,3.73,0,0,0-6.42-2.52c-1.06,1.14-2.21,2.27-3.47,3.39a55.72,55.72,0,0,1-16.2,9.89A54.73,54.73,0,0,1,1681.46,1133Zm5.16-26.09a38.17,38.17,0,0,0,19.35-5,37.76,37.76,0,0,0,14-14.19q5.3-9.17,5.3-21.79v-2q0-12.9-5.3-22.5a39.16,39.16,0,0,0-14-14.91,36.59,36.59,0,0,0-19.35-5.31q-19.21,0-28.82,12.33t-9.6,30.39q0,18.36,9.6,30.68T1686.62,1106.93Z" transform="translate(-289.7 -811.73)"/></svg>