<svg id="Layer_1" data-name="Layer 1" xmlns="http://www.w3.org/2000/svg" viewBox="0 0 1030.22 1049.84"><defs><style>.cls-1{fill:#e9ecef;}.cls-2{fill:#8338ec;}</style></defs><path class="cls-1" d="M1449.93,772.4l65.53-199.85a56,56,0,0,0-53.24-73.47H633.74a56,56,0,0,0-51.24,33.38L515.36,684.41a56,56,0,0,0,11.38,62l776.15,785.85a56,56,0,0,0,39.85,16.65h140.79a56,56,0,0,0,56-56v-156a56,56,0,0,0-16.81-40L1122,904.1c-36.08-35.36-10.61-96.65,39.91-96L1396,811A56,56,0,0,0,1449.93,772.4Z" transform="translate(-509.32 -499.08)"/><path class="cls-2" d="M920,1548.92H563.25A53.93,53.93,0,0,1,509.32,1495V1141.26a53.89,53.89,0,0,1,64.82-52.83C688.59,1112.32,919.5,1196,973.08,1485.21A54,54,0,0,1,920,1548.92Z" transform="translate(-509.32 -499.08)"/></svg>